<svg xmlns="http://www.w3.org/2000/svg" width="47" height="29.841" viewBox="0 0 47 29.841"><defs><style>.a{fill:#26bbec;}.b{fill:#595959;}.c{fill:#fcad3a;}.d{fill:#ee5281;}.e{fill:#83d816;}</style></defs><g transform="translate(0 -39.253)"><path class="a" d="M11.091,58.021a7.677,7.677,0,1,1,7.677-7.677A7.685,7.685,0,0,1,11.091,58.021Zm0-12.684A5.007,5.007,0,1,0,16.1,50.344,5.012,5.012,0,0,0,11.091,45.337Z" transform="translate(-2.746 -2.746)"/><path d="M8.345,55.942A8.345,8.345,0,1,1,16.689,47.6,8.354,8.354,0,0,1,8.345,55.942Zm0-15.354A7.009,7.009,0,1,0,15.354,47.6,7.017,7.017,0,0,0,8.345,40.588Zm0,12.684A5.674,5.674,0,1,1,14.019,47.6,5.681,5.681,0,0,1,8.345,53.272Zm0-10.013A4.339,4.339,0,1,0,12.684,47.6,4.344,4.344,0,0,0,8.345,43.258Z"/><path class="b" d="M75.944,58.021a7.677,7.677,0,1,1,7.677-7.677A7.685,7.685,0,0,1,75.944,58.021Zm0-12.684a5.007,5.007,0,1,0,5.007,5.007A5.012,5.012,0,0,0,75.944,45.337Z" transform="translate(-52.444 -2.746)"/><path d="M73.2,55.942A8.345,8.345,0,1,1,81.542,47.6,8.354,8.354,0,0,1,73.2,55.942Zm0-15.354A7.009,7.009,0,1,0,80.207,47.6,7.017,7.017,0,0,0,73.2,40.588Zm0,12.684A5.674,5.674,0,1,1,78.872,47.6,5.681,5.681,0,0,1,73.2,53.272Zm0-10.013A4.339,4.339,0,1,0,77.537,47.6,4.344,4.344,0,0,0,73.2,43.258Z" transform="translate(-49.698)"/><path class="c" d="M45.224,109.221a7.677,7.677,0,1,1,7.677-7.677A7.686,7.686,0,0,1,45.224,109.221Zm0-12.684a5.007,5.007,0,1,0,5.007,5.007A5.012,5.012,0,0,0,45.224,96.537Z" transform="translate(-28.844 -40.794)"/><path d="M42.478,107.142A8.345,8.345,0,1,1,50.822,98.8,8.354,8.354,0,0,1,42.478,107.142Zm0-15.354A7.009,7.009,0,1,0,49.487,98.8,7.017,7.017,0,0,0,42.478,91.788Zm0,12.684A5.674,5.674,0,1,1,48.152,98.8,5.681,5.681,0,0,1,42.478,104.472Zm0-10.013A4.339,4.339,0,1,0,46.817,98.8,4.344,4.344,0,0,0,42.478,94.458Z" transform="translate(-26.157 -38.048)"/><path class="d" d="M140.8,58.021a7.677,7.677,0,1,1,7.677-7.677A7.685,7.685,0,0,1,140.8,58.021Zm0-12.684a5.007,5.007,0,1,0,5.007,5.007A5.012,5.012,0,0,0,140.8,45.337Z" transform="translate(-102.142 -2.746)"/><path d="M138.051,55.942A8.345,8.345,0,1,1,146.4,47.6,8.354,8.354,0,0,1,138.051,55.942Zm0-15.354A7.009,7.009,0,1,0,145.06,47.6,7.017,7.017,0,0,0,138.051,40.588Zm0,12.684a5.674,5.674,0,1,1,5.674-5.674A5.681,5.681,0,0,1,138.051,53.272Zm0-10.013A4.339,4.339,0,1,0,142.39,47.6,4.344,4.344,0,0,0,138.051,43.258Z" transform="translate(-99.395)"/><path class="e" d="M110.077,109.221a7.677,7.677,0,1,1,7.677-7.677A7.686,7.686,0,0,1,110.077,109.221Zm0-12.684a5.007,5.007,0,1,0,5.007,5.007A5.012,5.012,0,0,0,110.077,96.537Z" transform="translate(-78.666 -40.794)"/><path d="M107.331,107.142a8.345,8.345,0,1,1,8.345-8.345A8.354,8.354,0,0,1,107.331,107.142Zm0-15.354A7.009,7.009,0,1,0,114.34,98.8,7.017,7.017,0,0,0,107.331,91.788Zm0,12.684A5.674,5.674,0,1,1,113,98.8,5.681,5.681,0,0,1,107.331,104.472Zm0-10.013A4.339,4.339,0,1,0,111.67,98.8,4.344,4.344,0,0,0,107.331,94.458Z" transform="translate(-74.684 -38.048)"/></g></svg>