<svg xmlns="http://www.w3.org/2000/svg" width="24" height="24" viewBox="0 0 24 24"><defs><style>.a{fill:none;}.b{fill:#8d8d8d;stroke:#000;stroke-width:2.5px;}.c,.d{stroke:none;}.d{fill:#000;}</style></defs><g transform="translate(-36 -206)"><g class="a" transform="translate(36 206)"><path class="c" d="M4,0H20a4,4,0,0,1,4,4V20a4,4,0,0,1-4,4H4a4,4,0,0,1-4-4V4A4,4,0,0,1,4,0Z"/><path class="d" d="M 4 2.5 C 3.17289924621582 2.5 2.5 3.17289924621582 2.5 4 L 2.5 20 C 2.5 20.82710075378418 3.17289924621582 21.5 4 21.5 L 20 21.5 C 20.82710075378418 21.5 21.5 20.82710075378418 21.5 20 L 21.5 4 C 21.5 3.17289924621582 20.82710075378418 2.5 20 2.5 L 4 2.5 M 4 0 L 20 0 C 22.20914077758789 0 24 1.790859222412109 24 4 L 24 20 C 24 22.20914077758789 22.20914077758789 24 20 24 L 4 24 C 1.790859222412109 24 0 22.20914077758789 0 20 L 0 4 C 0 1.790859222412109 1.790859222412109 0 4 0 Z"/></g><path class="b" d="M0,0H21" transform="translate(37.5 213.5)"/></g></svg>