<svg xmlns="http://www.w3.org/2000/svg" width="39.432" height="24.475" viewBox="0 0 39.432 24.475"><defs><style>.a{fill:#ffd422;}.b{fill:#8034ad;}.c{fill:#fff;}.d{fill:#5aaae7;}.e{fill:#1e81ce;}</style></defs><g transform="translate(0 -88)"><path class="a" d="M65.569,95.893l-9.253-3.236L52.156,91.2,48.838,90.04A30.845,30.845,0,0,1,43.4,91.4,8.364,8.364,0,0,1,40,90.04L48.838,88l7.478,2.06L60.477,91.2l15.555,4.276Z" transform="translate(-36.601)"/><g transform="translate(4.079 98.35)"><path class="b" d="M57.668,210.18l-6.8-.381A2.724,2.724,0,0,0,48,212.518v3.243a6.119,6.119,0,1,0,12.237,0v-2.869A2.72,2.72,0,0,0,57.668,210.18Z" transform="translate(-48 -209.795)"/><path class="b" d="M274.57,210.18l6.8-.381a2.724,2.724,0,0,1,2.869,2.719v3.243a6.119,6.119,0,1,1-12.237,0v-2.869A2.72,2.72,0,0,1,274.57,210.18Z" transform="translate(-252.964 -209.795)"/></g><g transform="translate(2.04 102.957)"><path class="a" d="M38.277,264.68v.68a6.119,6.119,0,0,1-6.119,6.119h0a6.119,6.119,0,0,1-6.119-6.119V264H24v1.36a8.158,8.158,0,0,0,16.316,0v-.68Z" transform="translate(-24 -264)"/><path class="a" d="M264.316,264v1.36a8.158,8.158,0,0,1-16.316,0v-.68h2.04v.68a6.119,6.119,0,0,0,6.119,6.119h0a6.119,6.119,0,0,0,6.119-6.119V264Z" transform="translate(-228.964 -264)"/></g><g transform="translate(5.439 99.558)"><path class="c" d="M65.36,227.4H64v-.68A2.722,2.722,0,0,1,66.719,224v1.36a1.362,1.362,0,0,0-1.36,1.36Z" transform="translate(-64 -224)"/><rect class="c" width="0.821" height="1.643" transform="translate(0.312 3.966)"/><path class="c" d="M289.36,227.4H288v-.68A2.722,2.722,0,0,1,290.719,224v1.36a1.362,1.362,0,0,0-1.36,1.36Z" transform="translate(-268.964 -224)"/><rect class="c" width="0.821" height="1.643" transform="translate(19.206 3.966)"/></g><g transform="translate(1.643 96.951)"><rect class="a" width="0.821" height="1.643" transform="translate(0 0)"/><rect class="a" width="0.821" height="1.643" transform="translate(35.324 0)"/></g><path class="d" d="M39.432,176v4.079a2.037,2.037,0,0,0-2.04,2.04v1.36h-2.04V181.6a2.724,2.724,0,0,0-2.869-2.719l-6.8.381a2.72,2.72,0,0,0-2.57,2.713v2.189h-2.04v-2.04s.68-2.04-1.36-2.04-1.36,2.04-1.36,2.04v2.04h-2.04v-2.189a2.72,2.72,0,0,0-2.57-2.713l-6.8-.381A2.724,2.724,0,0,0,4.079,181.6v1.883H2.04v-1.36a2.035,2.035,0,0,0-.6-1.441,2.035,2.035,0,0,0-1.441-.6V176l10.463.415,5.6.224a2.412,2.412,0,0,1,1.591.7c.449.449.374.7,1.013.7h2.774a.7.7,0,0,0,.578-.184c.116-.116.211-.292.435-.517a2.412,2.412,0,0,1,1.591-.7Z" transform="translate(0 -80.522)"/><path class="e" d="M10.463,95.893l9.253-3.236L23.876,91.2l3.318-1.163a30.845,30.845,0,0,0,5.439,1.36,8.364,8.364,0,0,0,3.4-1.36L27.194,88l-7.478,2.06L15.555,91.2,0,95.478Z"/></g></svg>