<svg xmlns="http://www.w3.org/2000/svg" width="35.467" height="35.467" viewBox="0 0 35.467 35.467"><defs><style>.a{fill:#fcad3a;}.b{fill:#ffd42c;}.c{fill:#8bc4ff;}.d{fill:#1e81ce;}</style></defs><path class="a" d="M49.251,338.217v6.65a2.217,2.217,0,0,1-2.217,2.217H18.217A2.217,2.217,0,0,1,16,344.867v-6.65A2.217,2.217,0,0,1,18.217,336H47.034A2.217,2.217,0,0,1,49.251,338.217Z" transform="translate(-14.892 -312.725)"/><path class="a" d="M76.817,96.567v1.075H48V96.567A18.536,18.536,0,0,1,55.569,82.2C66,74.9,76.817,86.458,76.817,96.567Z" transform="translate(-44.675 -74.367)"/><path class="b" d="M155.536,108.77l-14.753-.44s-2.2-22.695-5.456-26.3c7.006-2.285,15.825,1.95,18.647,14.221C154.267,97.523,155.411,107.307,155.536,108.77Z" transform="translate(-121.767 -75.022)"/><path class="c" d="M214.241,20.848a3.326,3.326,0,1,0-5.914,0" transform="translate(-193.55 -14.892)"/><path class="d" d="M33.251,22.358c0-7.142-4.769-14.659-11.161-17.1a4.433,4.433,0,1,0-8.713,0C6.9,7.733,2.217,15.325,2.217,22.358A3.33,3.33,0,0,0,0,25.492v6.65a3.329,3.329,0,0,0,3.325,3.325H32.142a3.329,3.329,0,0,0,3.325-3.325v-6.65A3.33,3.33,0,0,0,33.251,22.358ZM17.734,2.217A2.218,2.218,0,0,1,19.94,4.642a11.779,11.779,0,0,0-4.412,0,2.218,2.218,0,0,1,2.206-2.425ZM13.377,7.659a21.74,21.74,0,0,0-2.162,5.349,1.108,1.108,0,1,0,2.138.586,18.32,18.32,0,0,1,2.182-5.2c.751-1.123,1.532-1.741,2.2-1.741,1.166,0,2.571,1.808,3.665,4.718.262.7.5,1.444.716,2.224a1.108,1.108,0,1,0,2.139-.584,21.956,21.956,0,0,0-2.16-5.349c5.2,2.452,8.927,8.932,8.942,14.507H4.433c.015-5.576,3.739-12.057,8.944-14.508ZM33.251,32.142a1.11,1.11,0,0,1-1.108,1.108H3.325a1.11,1.11,0,0,1-1.108-1.108v-6.65a1.11,1.11,0,0,1,1.108-1.108H32.142a1.11,1.11,0,0,1,1.108,1.108Z" transform="translate(0 0)"/><path class="d" d="M177.108,368A1.108,1.108,0,0,0,176,369.108v4.433a1.108,1.108,0,0,0,2.217,0v-4.433A1.108,1.108,0,0,0,177.108,368Z" transform="translate(-163.808 -342.508)"/><path class="d" d="M113.108,368A1.108,1.108,0,0,0,112,369.108v4.433a1.108,1.108,0,0,0,2.217,0v-4.433A1.108,1.108,0,0,0,113.108,368Z" transform="translate(-104.242 -342.508)"/><path class="d" d="M49.108,368A1.108,1.108,0,0,0,48,369.108v4.433a1.108,1.108,0,0,0,2.217,0v-4.433A1.108,1.108,0,0,0,49.108,368Z" transform="translate(-44.675 -342.508)"/><path class="d" d="M241.108,368A1.108,1.108,0,0,0,240,369.108v4.433a1.108,1.108,0,0,0,2.217,0v-4.433A1.108,1.108,0,0,0,241.108,368Z" transform="translate(-223.375 -342.508)"/><path class="d" d="M305.108,368A1.108,1.108,0,0,0,304,369.108v4.433a1.108,1.108,0,0,0,2.217,0v-4.433A1.108,1.108,0,0,0,305.108,368Z" transform="translate(-282.941 -342.508)"/><path class="d" d="M369.108,368A1.108,1.108,0,0,0,368,369.108v4.433a1.108,1.108,0,0,0,2.217,0v-4.433A1.108,1.108,0,0,0,369.108,368Z" transform="translate(-342.508 -342.508)"/><path class="d" d="M433.108,368A1.108,1.108,0,0,0,432,369.108v4.433a1.108,1.108,0,0,0,2.217,0v-4.433A1.108,1.108,0,0,0,433.108,368Z" transform="translate(-402.074 -342.508)"/></svg>