<svg xmlns="http://www.w3.org/2000/svg" width="24" height="24" viewBox="0 0 24 24"><g transform="translate(0 -10.631)"><g transform="translate(0 10.631)"><g transform="translate(0 0)"><path d="M22.7,31.921v-.011H5.2A2.665,2.665,0,0,1,2.6,29.2V11.986a1.328,1.328,0,0,0-1.3-1.355A1.328,1.328,0,0,0,0,11.986V29.2a5.321,5.321,0,0,0,5.2,5.43H22.7a1.356,1.356,0,0,0,0-2.71Z" transform="translate(0 -10.631)"/></g></g><g transform="translate(6.666 15.329)"><g transform="translate(0 0)"><path d="M147.2,122.44a1.131,1.131,0,0,0-1.776.309l-2.944,5.106-4.161-3.788a1.128,1.128,0,0,0-1.772.3l0,.006-3.621,6.294a1.755,1.755,0,0,0,.242,2.147,1.129,1.129,0,0,0,.739.311v.036a1.219,1.219,0,0,0,.981-.618l2.944-5.106,4.161,3.788a1.128,1.128,0,0,0,1.772-.3l0-.006,3.69-6.33A1.756,1.756,0,0,0,147.2,122.44Z" transform="translate(-132.667 -122.133)"/></g></g></g></svg>